<mxfile host="Electron" modified="2023-11-15T19:18:18.410Z" agent="Mozilla/5.0 (Macintosh; Intel Mac OS X 10_15_7) AppleWebKit/537.36 (KHTML, like Gecko) draw.io/22.0.3 Chrome/114.0.5735.289 Electron/25.8.4 Safari/537.36" etag="CqyR7UrmbpHJImKjFwSk" version="22.0.3" type="device">
  <diagram name="Page-1" id="Q2Y8r1npobbDO4eRQ4Vy">
    <mxGraphModel dx="328" dy="598" grid="1" gridSize="10" guides="1" tooltips="1" connect="1" arrows="1" fold="1" page="1" pageScale="1" pageWidth="827" pageHeight="1169" math="0" shadow="0">
      <root>
        <mxCell id="0" />
        <mxCell id="1" parent="0" />
        <mxCell id="l9Onrc8s48oZsEdozDJg-1" value="" style="ellipse;html=1;shape=startState;fillColor=#000000;strokeColor=#ff0000;" vertex="1" parent="1">
          <mxGeometry x="220" y="20" width="30" height="30" as="geometry" />
        </mxCell>
        <mxCell id="l9Onrc8s48oZsEdozDJg-2" value="" style="edgeStyle=orthogonalEdgeStyle;html=1;verticalAlign=bottom;endArrow=open;endSize=8;strokeColor=#ff0000;rounded=0;" edge="1" source="l9Onrc8s48oZsEdozDJg-1" parent="1">
          <mxGeometry relative="1" as="geometry">
            <mxPoint x="235" y="110" as="targetPoint" />
          </mxGeometry>
        </mxCell>
        <mxCell id="l9Onrc8s48oZsEdozDJg-3" value="Lire rayon" style="rounded=1;whiteSpace=wrap;html=1;arcSize=40;fontColor=#000000;fillColor=#ffffc0;strokeColor=#ff0000;" vertex="1" parent="1">
          <mxGeometry x="175" y="110" width="120" height="40" as="geometry" />
        </mxCell>
        <mxCell id="l9Onrc8s48oZsEdozDJg-4" value="" style="edgeStyle=orthogonalEdgeStyle;html=1;verticalAlign=bottom;endArrow=open;endSize=8;strokeColor=#ff0000;rounded=0;" edge="1" source="l9Onrc8s48oZsEdozDJg-3" parent="1">
          <mxGeometry relative="1" as="geometry">
            <mxPoint x="235" y="210" as="targetPoint" />
          </mxGeometry>
        </mxCell>
        <mxCell id="l9Onrc8s48oZsEdozDJg-5" value="Lire angle" style="rounded=1;whiteSpace=wrap;html=1;arcSize=40;fontColor=#000000;fillColor=#ffffc0;strokeColor=#ff0000;" vertex="1" parent="1">
          <mxGeometry x="175" y="210" width="120" height="40" as="geometry" />
        </mxCell>
        <mxCell id="l9Onrc8s48oZsEdozDJg-6" value="" style="edgeStyle=orthogonalEdgeStyle;html=1;verticalAlign=bottom;endArrow=open;endSize=8;strokeColor=#ff0000;rounded=0;" edge="1" source="l9Onrc8s48oZsEdozDJg-5" parent="1">
          <mxGeometry relative="1" as="geometry">
            <mxPoint x="235" y="310" as="targetPoint" />
          </mxGeometry>
        </mxCell>
        <mxCell id="l9Onrc8s48oZsEdozDJg-9" style="edgeStyle=orthogonalEdgeStyle;rounded=0;orthogonalLoop=1;jettySize=auto;html=1;exitX=0.5;exitY=1;exitDx=0;exitDy=0;" edge="1" parent="1" source="l9Onrc8s48oZsEdozDJg-7">
          <mxGeometry relative="1" as="geometry">
            <mxPoint x="235" y="410" as="targetPoint" />
          </mxGeometry>
        </mxCell>
        <mxCell id="l9Onrc8s48oZsEdozDJg-7" value="aireSecteurCirculaire &amp;lt;-- (PI*R^2*angle)/360" style="rounded=1;whiteSpace=wrap;html=1;arcSize=40;fontColor=#000000;fillColor=#ffffc0;strokeColor=#ff0000;" vertex="1" parent="1">
          <mxGeometry x="155" y="310" width="160" height="50" as="geometry" />
        </mxCell>
        <mxCell id="l9Onrc8s48oZsEdozDJg-10" value="Afficher airSecteurCirculaire" style="rounded=1;whiteSpace=wrap;html=1;arcSize=40;fontColor=#000000;fillColor=#ffffc0;strokeColor=#ff0000;" vertex="1" parent="1">
          <mxGeometry x="175" y="410" width="120" height="40" as="geometry" />
        </mxCell>
        <mxCell id="l9Onrc8s48oZsEdozDJg-11" value="" style="edgeStyle=orthogonalEdgeStyle;html=1;verticalAlign=bottom;endArrow=open;endSize=8;strokeColor=#ff0000;rounded=0;" edge="1" source="l9Onrc8s48oZsEdozDJg-10" parent="1">
          <mxGeometry relative="1" as="geometry">
            <mxPoint x="235" y="510" as="targetPoint" />
          </mxGeometry>
        </mxCell>
        <mxCell id="l9Onrc8s48oZsEdozDJg-12" value="" style="ellipse;html=1;shape=endState;fillColor=#000000;strokeColor=#ff0000;" vertex="1" parent="1">
          <mxGeometry x="220" y="510" width="30" height="30" as="geometry" />
        </mxCell>
      </root>
    </mxGraphModel>
  </diagram>
</mxfile>
